<mxfile host="Electron" modified="2025-01-28T08:49:09.525Z" agent="Mozilla/5.0 (X11; Linux x86_64) AppleWebKit/537.36 (KHTML, like Gecko) draw.io/24.2.5 Chrome/120.0.6099.109 Electron/28.1.0 Safari/537.36" etag="4QE7v7n8aCoDn2mH4WhE" version="24.2.5" type="device">
  <diagram name="Page-1" id="zJeKF1FZi2B6gOTv0nd5">
    <mxGraphModel dx="2060" dy="799" grid="1" gridSize="10" guides="1" tooltips="1" connect="1" arrows="1" fold="1" page="1" pageScale="1" pageWidth="850" pageHeight="1100" math="0" shadow="0">
      <root>
        <mxCell id="0" />
        <mxCell id="1" parent="0" />
        <mxCell id="tROpRTxakjWJpZE90WJ_-2" value="" style="rounded=1;whiteSpace=wrap;html=1;fillColor=#f5f5f5;fontColor=#333333;strokeColor=#666666;" vertex="1" parent="1">
          <mxGeometry x="-70" y="270" width="890" height="210" as="geometry" />
        </mxCell>
        <mxCell id="tROpRTxakjWJpZE90WJ_-1" value="" style="shape=image;verticalLabelPosition=bottom;labelBackgroundColor=default;verticalAlign=top;aspect=fixed;imageAspect=0;image=data:image/png,iVBORw0KGgoAAAANSUhEUgAAAv8AAACoCAYAAAB374FEAAAABHNCSVQICAgIfAhkiAAAABl0RVh0U29mdHdhcmUAZ25vbWUtc2NyZWVuc2hvdO8Dvz4AAAAtdEVYdENyZWF0aW9uIFRpbWUAVHVlIDI4IEphbiAyMDI1IDA5OjQ2OjMwIEFNIENFVAQUZScAABPpSURBVHic7d1/bJRVvsfxz/ygbZBSltpSqbaPStj1IpBcN7AJRl1ho+wfNEJkreEPTVSMrmRijOHaG4M3kpjQBGLqspgu6SaY7KpoUyUSNQIacSFSY1loqeIMO22hS1HR0lULnPsH02mrDCK2c+bMeb+SbzpzJOGc830GP/P0mXlCA6f6TXtbq66b898CAAAAkL+iQw/+a9b/KpHYYHc2AAAAOSwIYuQlOC1sewIAAAAAsoPwDwAAAHgiHf7ffvt/FI/H1dDQoFAoZHdWAAAAY+yaa67RCy+8oM8//3zU+OLFi9Xe3v6DHJRpHHDawKl+s++Dd82NN/6fKS4uNsYYU1tbayRRFEVRFEXlTT3//PNm2bJlpqenJz1WVFRk4vG4CYJgVA7KNB4EMevroKifU+kz/11dn+uxxx7T22+/rdtvv93uOxIAAIAx9sADD2jr1q2aMGFCeuyGG27Q3r17lUgkRuWgTOOZzJgxQzt37lRTU5NaWlq0e/duVVVVSZIWLlyovXv36uOPP9a+fftUUlKSlfUC55MO/9On/0JLly7VqlWrVFlZaXdWAAAA42Tk5TvTp09XV1eXqqqqRuWgTOMXcuONN+qpp57SkiVLtG3bNq1cuVKS9OijjyoWi2nu3LlasGCBTp48Oe5rBDJJh/+6uiWqq6vTmTNnNDg4aHdWAAAAWRKNRlVfX/+DHJRpPJPPPvtM8XhcknTkyBGVl5dLkjZv3qyNGzfq3nvv1dmzZ7OwIiCzdPifNKlILS0tqq6uVnd3t91ZAQAAZEEymdSKFSs0efLkUTko0/iFDAwMjHo+9BuGrVu3atGiRbr66qu1b98+TZkyZVzXBFxIOvxv2fK+IpGIHn74Yb322mt2ZwUAAJAFra2tmjp1qjZu3DgqB2UavxTTpk3T8ePH9eSTT+qLL77QrFmzxnwdwMVKh/8nnliinp4exeNxtbS02J0VAADAGHvooYe0fft2lZaWavv27brvvvv03Xff6Xe/+53WrVs3KgdlGr8UDQ0NOnjwoPbt26dkMqk9e/aM+dqAixUaONVv2ttataz2FW5XDQAAcAFBECMvwWnc4RcAAADwRHTkkyCI2ZsJAACAA8hLcNrQHX59uWOdL+tkrflbrDX/ypd1stb8Ldaaf+XLOn1cK5f9AAAAAJ4g/AMAAACeIPwDAAAAniD8AwAAAJ4g/AMAAACeIPwDAAAAniD8AwAAAJ4IDZzqN+1trVpW+wq3qwYAALiAIIiRl+A0zvwDAAAAniD8AwAAAJ5Ih/9Ek4VfYdm4sfHO7C+TtebpWm3dnJu15t9aea2yVtbqxjqNR3nJp7569lq1e+Z/l6RQlou1slaX18la83OttrBW1uryWvl3ibW6vE6La+WyHwAAAMAThH8AAADAE4R/AAAAwBOEfwAAAMAThH8AAADAE4R/AAAAwBOEfwAAAMAThH8AAADAE4R/AAAAwBOEfwAAAMAThH8AAADAE4R/AAAAwBOEfwAAAMAThH8AAADAE4R/AAAAwBPR9KOdktZYnUt2+LJOsda8xVrzjy/rFGvNW6w1P/myVl/WqXNrDQ2c6jftba1aVvuKEokNtqcEAACQs4IgRl6C06IjnwRBzN5MAAAAHEBegstGhX/eyQIAAGTGmX+4jg/8AgAAAJ4g/AMAAACeSIf/RHyDZJT/tdPuhgMAAAC2DJ/53yUp5EEBAAAAnuKyHwAAAMAThH8AAADAE4R/AAAAwBOEfwAAAMAThH8AAADAE4R/AAAAwBOEfwAAAMAThH8AAADAE4R/AAAAwBOEfwAAAMAThH8AAADAE4R/AAAAwBOEfwAAAMAThH8AAADAE4R/AAAAwBNR2xPIup2S1tieBAAAcFFCG2xPAfhZ0uE/uCfmxwFN8AcAAJcoCGJKJDzIS8hbo878B0HM3kwAAAAcQF6Cy0aFf97JAgAAZMaZf7iOD/wCAAAAniD8AwAAAJ4IDZzqN+1trbrh25ukW2xPB2PK2J5AFu2SP8evT30FAGC8eZYh/PuqT5/4dDDvtD2BLPKprwCQY7jmPw95liG47AcAAADwBOEfAAAA8AThHwAAAPAE4R8AAADwBOEfAAAA8AThHwAAAPAE4R8AAADwBOEfAAAA8AThHwAAAPAE4R8AAADwBOEfAAAA8AThHwAAAPAE4R8AAADwBOEfAAAA8AThHwAAAPBENP1op6Q1VucCXDqOXwAAcCk8yxDp8B80xZRIbLA7G+BSefSiBQAAY8izDBEd+SQIYvZmAgAA4ADyElw2Kvxz5h8AACCzIOBKCbiND/wCAAAAniD85zs6nD+iP/IcAADgfKLneWgiZy3NBuMmKul1SbfZngh+NiNpt6RFkr6RVCTpP7YnBQD+SYhLfuCY72WIdPg/M7VfOmx3bhhjZZJOSgrZngjGxJ8k/VLSx5J+lXr+sO1JAYBfuOYfThqRIdIXhZy+/KTdSWHsVUg6ZnsSGDP7Jc1JPZ6Teg4AAPBjRmSIEeH/K4szwriokHTU9iQwZtokzU49nk34BwAAF2lEhhgO/6VfW5wRxsU0zvznlX9KmpX6LMd1kg7YnhAAAHDCiAzBmf98ViGp1/YkMGZOSuqTdFPq55e2JwQAAJwwIkMMh/+y4fC/ePFitbe3Kx6Pq6GhQaFQyKlxpFwxfOY/13qUaXzSpElqampSb2+vEomE6uvrs79vuWy/pFuGL/nJtf6db7ygoEANDQ06ePCgDh06pMbGRhUWFtrYPQAA/DWUIQZO9Zt9H7xroluLjSRTVFRk4vG4CYLAFBcXG2OMqa2tdWY89YVGlGT0dxld4U5PJZkXX3zRrF271kSjURMKhUxFRYX9fcyluj3V19vc6uu8efNMKBQy4XDY7Nixw9xxxx3295KiKOoSKghi1udAUZdUqQwRqat7Yk1f71H9ecIm6W/S/F/P15VXXqnGxkbV1dVpcHBQ06ZN09GjR50Yb25utv2+KjcUSlop6S/S/Bvc6OmePXv09NNPq6amRqdPn5Yk9ff3297J3DIgaYWkjdL8WW70tbm5Wd3d3ZKkyspK3X///Xruued04sQJ27sJAD/ZlCm/0Zdf/sP2NICfLpUhhu//akJSiTR9+nR1dXWpqqpKS5cu1apVq1RZWenMOFKmpN7nFbvT02uvvVYdHR3p4I8MUle35Vr/LvSaLCsrUzKZ1OHDh7Vp0yZ1dnba3UMAAHwUGhH+w99Fz90USlI0GlV9fb3q6up05swZDQ4OOjWO1A2+vpVTPS0sLFQkErGxW+6YI+n48Hf15lL/LjR+/PhxXXXVVaqsrNTy5cu1ZMmS7O8dAAA+S2WI4fA/UCSVS8lkUitWrNDkyZPV0tKi6upqdXd3OzOOlHJJX8upnnZ2dmrmzJl8cPtCrpd06NzPXOvfxbwm+/r69PLLL2vhwoXWthAAAC8NZYihD/wWNJUbLZcpKCgwxhhTU1NjIpGIaW5uNjU1Nc6MW/8wRa7UH2T0vJzqqSTzzjvvmNWrV5twOGzC4bApLy+3v5e5VH+V0a0yanKnr6WlpWbGjBlGqS8U2L59u1m5cqX9vaQoirqE4gO/lLM1lCGGwv/E9dcYPXzuPy5atMh0dnaa3t5es379ehMKhZwap2T0RxmtlXM9raioMC0tLebYsWOmp6fHPPjgg/b3MleqREbbZBSV0esympJ7/TvfeHV1tfnwww9NV1eXSSaT5tlnnzWRSMT+flIURV1CEf4pJ2tEhggNnOo37W2t+m1LTF8VtkprbP9OAmPiKUn/Tl3zT0/zwwJJNZIel7ROUrOk921PCgD8EgQxJRIbbE8D+GlGZIj0Nf8Teqaeu04c+aFc0hHR03wyZ/jmXtovabbl+QAAADeMyBDp8F/wr7L0N8MgD5RJOix6mk9mS2pLPW4j/AMAgIs0IkNEh8YKkqVScerKILjNSHozFf7paX4wknanPqUvSR2SHkoVACBrEuKSHzjmexkiHf5Dp6PS7yWdtTg5jJ1wqpf0NH9EJQ3d/+wbSRNGPAcAZAXX/MNJIzJEdOR4UBWzNCMAAAA3BAF5Ce4aFf55JwsAAJAZZ/7huvBF/BkAAAAAeYDwDwAAAHgiHf4TTfwKC2PE/n3sslM7bW80AAB5xvb/2z3IEZz5x9jbJSnkQQEAgLHlS4awmCMI/wAAAIAnCP8AAACAJwj/AAAAgCcI/wAAAIAnCP8AAACAJwj/AAAAgCcI/wAAAIAnCP8AAACAJwj/AAAAgCcI/wAAAIAnCP8AAACAJwj/AAAAgCcI/wAAAIAnCP8AAACAJwj/AAAAgCei6Uc7Ja2xOhfALbxmAMA7CW2wPQXkC0s5IjRwqt+0t7VqWe0rSiQ4oAEAADIJghh5CU6LjnwSBDF7MwEAAHAAeQkuGxX+eScLAACQGWf+4To+8AsAAAB4gvCP8cGRBeSu6I88h5voa/6hpxgH6cPIRM7anQnyR1TS65Jusz0RAD9gJO2WtEjSN5KKJP3H9qTws9HXrMnat/3QU4yT9PnZM1P77c4E+aNM0klJIYqicq7Cktok/TL1ev2VpD/lwLwo+upIBVfH6CnldKXD/+nLT2Y/JCI/VUg6ZnsSADLaL2lO6vGc1HO4j77mH3qKcTAi/H9ldybIHxWSjtqeBICM2iTNTj2eTaDIG/Q1/9BTjIPh8F/6td2ZIH9M48w/kNP+KWlW6vM510k6YHtCGBP0Nf/QU4wDzvxj7FVI6rU9CQAZnZTUJ+mm1M8vbU8IY4K+5h96inEwHP7LhsP/4sWL1d7erng8roaGBoVCIafGYdkVw2f+c+3YyDQ+adIkNTU1qbe3V4lEQvX19dnfNyCb9ku6Zfgyglx7TWYaf+SRR9TR0aH29natW7dOkUgk+3uXyxzta0lJiTZv3qxDhw7p4MGDqq6uzv7e5SoHe1pQUKCGhgYdPHhQhw4dUmNjowoLC23sHs5n4FS/2ffBuya6tdhIMkVFRSYej5sgCExxcbExxpja2lpnxlNfjkXZrL/L6Ap3jiVJ5sUXXzRr16410WjUhEIhU1FRYX8fKWo86/bUa/U2d16r119/vdm/f7+57LLLTDgcNlu2bDF33XWX/b3MpXKwr5LMSy+9ZNasWWNCoZD9PfyRCoIYPb2Ins6bN8+EQiETDofNjh07zB133GG9d9S5itTVPbGmr/eo/jxhk/Q3af6v5+vKK69UY2Oj6urqNDg4qGnTpuno0aNOjDc3N9t+P+W3QkkrJf1Fmn+DG8fSnj179PTTT6umpkanT5+WJPX389W3yHMDklZI2ijNn+XGa/XEiROaMGGCXn31VRljdOLECd1zzz166aWXbO9m7nCwrx988IFWr16tO++8U8YY2zv4o6ZM+Y2+/PIf2fsLHexpc3Ozuru7JUmVlZW6//779dxzz+nEiRPZ2zdkNHwfVhOSSqTp06erq6tLVVVVWrp0qVatWqXKykpnxmHZlNT7ymJ3jqVrr71WHR0d6eAPeCN1pWSuvSYzjR84cEDz5s3TxIkTFYlEdPfdd+vyyy+3vYu5x7G+zp07V59++qm2bNmiXbt2qbGxUZMnT7a9i7nFsZ5KUllZmZLJpA4fPqxNmzaps7PT7h4iLR3+w99Fz92cSVI0GlV9fb3q6up05swZDQ4OOjUOi8okfSunjqXCwkKuG4Z/5kg6Pvwd4rn0msw03tHRoYaGBr3xxht666231NfXp6++4ssqRnGwryUlJZo1a5bq6up0880365NPPtGTTz5pY/dyk4M9laTjx4/rqquuUmVlpZYvX64lS5Zkf+9wXsPhf6BIKpeSyaRWrFihyZMnq6WlRdXV1eru7nZmHJaVS/paTh1LnZ2dmjlzJh8Yh1+ul3To3M9ce01e6N/3zZs36+abb9att96qgYEBffTRR7Z3Mrc42Nfe3l699957SiQSkqQ333xTc+fOtb2TucPBno7U19enl19+WQsXLrS2hfieoQ/8FjSVGy2XKSgoMMYYU1NTYyKRiGlubjY1NTXOjNv+EIX39QcZPS+njiVJ5p133jGrV6824XDYhMNhU15ebn8vKWo8668yulVGTW69Vodqzpw55siRI6a6utr+XuZSOdjXiRMnmgMHDpjKykojyTz++ONmw4YN9vcyQ2X9A78O9rS0tNTMmDHDKPVFMtu3bzcrV6603jsqVUPhf+L6a4wePje4aNEi09nZaXp7e8369evTn753ZZyyWH+U0Vo5dyxVVFSYlpYWc+zYMdPT02MefPBB+3tJUeNVJTLaJqOojF6X0ZTce01mGn/mmWfMgQMHzN69e82CBQvs72UulcN9XbhwoWltbTXt7e1m27ZtZurUqfb3M0NlNfw72tPq6mrz4Ycfmq6uLpNMJs2zzz5rIpGI9d5R5yo0cKrftLe16rctMX1V2Cqtsf27CDjtKUn/Tl3zz7EE5KYFkmokPS5pnaRmSe/bnhR+NvqaFUEQUyKxITt/GT3FOEhf8z+hZ+q567WBn6Nc0hFxLAG5bM7wDYO0X9Jsy/PB2KCv+YeeYhykw3/Bv8rS39ACXLIySYfFsQTkstmS2lKP2wgUeYO+5h96inEQHXpQkCyVilNXAwGXwkh6MxX+OZaA3GQk7U59e4gkdUh6KFVwF33NmoSydMkPPcU4SYf/0Omo9HtJZ+1OCI4Lp44hjiUgd0UlDd3T7htJE0Y8h7voa1Zk9Zp/eopxEB35JKiK2ZsJAACAA4KAvAR3jQr/WXsnCwAA4KCsnvkHxkH4Iv4MAAAAgDxA+AcAAAA8QfgHAAAAPEH4BwAAADxB+AcAAAA8QfgHAAAAPPH/Jg0es9UjZI8AAAAASUVORK5CYII=;" vertex="1" parent="1">
          <mxGeometry x="30" y="290" width="767" height="168" as="geometry" />
        </mxCell>
        <mxCell id="tROpRTxakjWJpZE90WJ_-3" value="clock" style="text;html=1;align=center;verticalAlign=middle;resizable=0;points=[];autosize=1;strokeColor=none;fillColor=none;" vertex="1" parent="1">
          <mxGeometry x="-19" y="310" width="50" height="30" as="geometry" />
        </mxCell>
        <mxCell id="tROpRTxakjWJpZE90WJ_-4" value="req" style="text;html=1;align=center;verticalAlign=middle;resizable=0;points=[];autosize=1;strokeColor=none;fillColor=none;" vertex="1" parent="1">
          <mxGeometry x="-9" y="355" width="40" height="30" as="geometry" />
        </mxCell>
        <mxCell id="tROpRTxakjWJpZE90WJ_-5" value="loadVal[31:0]" style="text;html=1;align=center;verticalAlign=middle;resizable=0;points=[];autosize=1;strokeColor=none;fillColor=none;" vertex="1" parent="1">
          <mxGeometry x="-59" y="379" width="90" height="30" as="geometry" />
        </mxCell>
        <mxCell id="tROpRTxakjWJpZE90WJ_-6" value="ack" style="text;html=1;align=center;verticalAlign=middle;resizable=0;points=[];autosize=1;strokeColor=none;fillColor=none;" vertex="1" parent="1">
          <mxGeometry x="-9" y="402" width="40" height="30" as="geometry" />
        </mxCell>
        <mxCell id="tROpRTxakjWJpZE90WJ_-7" value="reset" style="text;html=1;align=center;verticalAlign=middle;resizable=0;points=[];autosize=1;strokeColor=none;fillColor=none;" vertex="1" parent="1">
          <mxGeometry x="-19" y="333" width="50" height="30" as="geometry" />
        </mxCell>
        <mxCell id="tROpRTxakjWJpZE90WJ_-8" value="result[31:0]" style="text;html=1;align=center;verticalAlign=middle;resizable=0;points=[];autosize=1;strokeColor=none;fillColor=none;" vertex="1" parent="1">
          <mxGeometry x="-49" y="425" width="80" height="30" as="geometry" />
        </mxCell>
      </root>
    </mxGraphModel>
  </diagram>
</mxfile>
